<mxfile host="app.diagrams.net" agent="Mozilla/5.0 (Windows NT 10.0; Win64; x64) AppleWebKit/537.36 (KHTML, like Gecko) Chrome/128.0.0.0 Safari/537.36 Edg/128.0.0.0" version="24.7.14">
  <diagram name="第 1 页" id="dpNK1yiHBSFCX0RUdnqN">
    <mxGraphModel dx="2424" dy="2585" grid="1" gridSize="10" guides="1" tooltips="1" connect="1" arrows="1" fold="1" page="1" pageScale="1" pageWidth="827" pageHeight="1169" math="0" shadow="0">
      <root>
        <mxCell id="0" />
        <mxCell id="1" parent="0" />
        <mxCell id="MlDsWG4FhvYhMnGSrDSt-1" value="" style="rounded=0;whiteSpace=wrap;html=1;dashed=1;fillColor=none;" vertex="1" parent="1">
          <mxGeometry x="335" y="-20" width="940" height="970" as="geometry" />
        </mxCell>
        <mxCell id="MlDsWG4FhvYhMnGSrDSt-2" value="" style="rounded=0;whiteSpace=wrap;html=1;dashed=1;fillColor=none;" vertex="1" parent="1">
          <mxGeometry x="480" y="50" width="510" height="680" as="geometry" />
        </mxCell>
        <mxCell id="MlDsWG4FhvYhMnGSrDSt-3" style="edgeStyle=orthogonalEdgeStyle;rounded=0;orthogonalLoop=1;jettySize=auto;html=1;exitX=1;exitY=0.5;exitDx=0;exitDy=0;entryX=0;entryY=0.5;entryDx=0;entryDy=0;" edge="1" parent="1" source="MlDsWG4FhvYhMnGSrDSt-4" target="MlDsWG4FhvYhMnGSrDSt-8">
          <mxGeometry relative="1" as="geometry">
            <mxPoint x="570" y="274.66666666666663" as="targetPoint" />
          </mxGeometry>
        </mxCell>
        <mxCell id="MlDsWG4FhvYhMnGSrDSt-4" value="" style="rounded=0;whiteSpace=wrap;html=1;" vertex="1" parent="1">
          <mxGeometry x="310" y="251" width="50" height="56" as="geometry" />
        </mxCell>
        <mxCell id="MlDsWG4FhvYhMnGSrDSt-5" value="&lt;font style=&quot;font-size: 30px;&quot;&gt;osc_clk&lt;br&gt;&lt;br&gt;&lt;/font&gt;" style="text;html=1;align=center;verticalAlign=middle;resizable=0;points=[];autosize=1;strokeColor=none;fillColor=none;" vertex="1" parent="1">
          <mxGeometry x="429" y="217" width="120" height="90" as="geometry" />
        </mxCell>
        <mxCell id="MlDsWG4FhvYhMnGSrDSt-6" value="&lt;span style=&quot;font-size: 30px;&quot;&gt;PB[3]&lt;/span&gt;" style="text;html=1;align=center;verticalAlign=middle;resizable=0;points=[];autosize=1;strokeColor=none;fillColor=none;" vertex="1" parent="1">
          <mxGeometry x="284" y="206" width="100" height="50" as="geometry" />
        </mxCell>
        <mxCell id="MlDsWG4FhvYhMnGSrDSt-7" style="edgeStyle=orthogonalEdgeStyle;rounded=0;orthogonalLoop=1;jettySize=auto;html=1;exitX=1;exitY=0.5;exitDx=0;exitDy=0;" edge="1" parent="1">
          <mxGeometry relative="1" as="geometry">
            <mxPoint x="1110" y="280" as="targetPoint" />
            <mxPoint x="750" y="281" as="sourcePoint" />
          </mxGeometry>
        </mxCell>
        <mxCell id="MlDsWG4FhvYhMnGSrDSt-8" value="&lt;font style=&quot;font-size: 30px;&quot;&gt;ICG&lt;/font&gt;" style="whiteSpace=wrap;html=1;aspect=fixed;" vertex="1" parent="1">
          <mxGeometry x="670" y="240" width="80" height="80" as="geometry" />
        </mxCell>
        <mxCell id="MlDsWG4FhvYhMnGSrDSt-9" value="&lt;span style=&quot;font-size: 30px;&quot;&gt;gen_cpu_hclk&lt;/span&gt;" style="text;html=1;align=center;verticalAlign=middle;resizable=0;points=[];autosize=1;strokeColor=none;fillColor=none;" vertex="1" parent="1">
          <mxGeometry x="878" y="212" width="210" height="50" as="geometry" />
        </mxCell>
        <mxCell id="MlDsWG4FhvYhMnGSrDSt-10" style="edgeStyle=orthogonalEdgeStyle;rounded=0;orthogonalLoop=1;jettySize=auto;html=1;exitX=0;exitY=0.5;exitDx=0;exitDy=0;startArrow=classic;startFill=1;endArrow=none;endFill=0;" edge="1" parent="1" source="MlDsWG4FhvYhMnGSrDSt-12">
          <mxGeometry relative="1" as="geometry">
            <mxPoint x="610" y="280" as="targetPoint" />
          </mxGeometry>
        </mxCell>
        <mxCell id="MlDsWG4FhvYhMnGSrDSt-11" style="edgeStyle=orthogonalEdgeStyle;rounded=0;orthogonalLoop=1;jettySize=auto;html=1;exitX=1;exitY=0.5;exitDx=0;exitDy=0;" edge="1" parent="1" source="MlDsWG4FhvYhMnGSrDSt-12">
          <mxGeometry relative="1" as="geometry">
            <mxPoint x="1100" y="430" as="targetPoint" />
          </mxGeometry>
        </mxCell>
        <mxCell id="MlDsWG4FhvYhMnGSrDSt-12" value="&lt;font style=&quot;font-size: 30px;&quot;&gt;ICG&lt;/font&gt;" style="whiteSpace=wrap;html=1;aspect=fixed;" vertex="1" parent="1">
          <mxGeometry x="641" y="390" width="80" height="80" as="geometry" />
        </mxCell>
        <mxCell id="MlDsWG4FhvYhMnGSrDSt-13" value="&lt;span style=&quot;font-size: 30px;&quot;&gt;gen_hclk&lt;/span&gt;" style="text;html=1;align=center;verticalAlign=middle;resizable=0;points=[];autosize=1;strokeColor=none;fillColor=none;" vertex="1" parent="1">
          <mxGeometry x="909" y="361" width="140" height="50" as="geometry" />
        </mxCell>
        <mxCell id="MlDsWG4FhvYhMnGSrDSt-14" style="edgeStyle=orthogonalEdgeStyle;rounded=0;orthogonalLoop=1;jettySize=auto;html=1;exitX=0.5;exitY=0;exitDx=0;exitDy=0;startArrow=classic;startFill=1;endArrow=none;endFill=0;" edge="1" parent="1" source="MlDsWG4FhvYhMnGSrDSt-16">
          <mxGeometry relative="1" as="geometry">
            <mxPoint x="750" y="430" as="targetPoint" />
            <Array as="points">
              <mxPoint x="768" y="430" />
            </Array>
          </mxGeometry>
        </mxCell>
        <mxCell id="MlDsWG4FhvYhMnGSrDSt-15" style="edgeStyle=orthogonalEdgeStyle;rounded=0;orthogonalLoop=1;jettySize=auto;html=1;exitX=1;exitY=0.5;exitDx=0;exitDy=0;" edge="1" parent="1" source="MlDsWG4FhvYhMnGSrDSt-23">
          <mxGeometry relative="1" as="geometry">
            <mxPoint x="1100" y="590" as="targetPoint" />
          </mxGeometry>
        </mxCell>
        <mxCell id="MlDsWG4FhvYhMnGSrDSt-16" value="&lt;span style=&quot;font-size: 30px;&quot;&gt;DIV 3&lt;/span&gt;" style="whiteSpace=wrap;html=1;aspect=fixed;" vertex="1" parent="1">
          <mxGeometry x="728" y="531" width="80" height="80" as="geometry" />
        </mxCell>
        <mxCell id="MlDsWG4FhvYhMnGSrDSt-17" value="&lt;span style=&quot;font-size: 30px;&quot;&gt;gen_pclk&lt;/span&gt;" style="text;html=1;align=center;verticalAlign=middle;resizable=0;points=[];autosize=1;strokeColor=none;fillColor=none;" vertex="1" parent="1">
          <mxGeometry x="918" y="508" width="140" height="50" as="geometry" />
        </mxCell>
        <mxCell id="MlDsWG4FhvYhMnGSrDSt-18" value="&lt;font style=&quot;font-size: 30px;&quot;&gt;U_wrap/U_pmu&lt;br&gt;&lt;/font&gt;" style="text;html=1;align=center;verticalAlign=middle;resizable=0;points=[];autosize=1;strokeColor=none;fillColor=none;" vertex="1" parent="1">
          <mxGeometry x="522" y="51" width="230" height="50" as="geometry" />
        </mxCell>
        <mxCell id="MlDsWG4FhvYhMnGSrDSt-19" value="" style="rounded=0;whiteSpace=wrap;html=1;" vertex="1" parent="1">
          <mxGeometry x="470" y="264" width="30" height="30" as="geometry" />
        </mxCell>
        <mxCell id="MlDsWG4FhvYhMnGSrDSt-20" value="" style="rounded=0;whiteSpace=wrap;html=1;" vertex="1" parent="1">
          <mxGeometry x="973" y="266" width="30" height="30" as="geometry" />
        </mxCell>
        <mxCell id="MlDsWG4FhvYhMnGSrDSt-21" value="" style="rounded=0;whiteSpace=wrap;html=1;" vertex="1" parent="1">
          <mxGeometry x="973" y="410" width="30" height="30" as="geometry" />
        </mxCell>
        <mxCell id="MlDsWG4FhvYhMnGSrDSt-22" value="" style="edgeStyle=orthogonalEdgeStyle;rounded=0;orthogonalLoop=1;jettySize=auto;html=1;exitX=1;exitY=0.5;exitDx=0;exitDy=0;endArrow=classic;endFill=1;entryX=0.297;entryY=1.066;entryDx=0;entryDy=0;entryPerimeter=0;" edge="1" parent="1" source="MlDsWG4FhvYhMnGSrDSt-16" target="MlDsWG4FhvYhMnGSrDSt-49">
          <mxGeometry relative="1" as="geometry">
            <mxPoint x="1137" y="569.8620689655173" as="targetPoint" />
            <mxPoint x="964" y="570" as="sourcePoint" />
          </mxGeometry>
        </mxCell>
        <mxCell id="MlDsWG4FhvYhMnGSrDSt-23" value="" style="rounded=0;whiteSpace=wrap;html=1;" vertex="1" parent="1">
          <mxGeometry x="973" y="575.5" width="30" height="30" as="geometry" />
        </mxCell>
        <mxCell id="MlDsWG4FhvYhMnGSrDSt-24" style="edgeStyle=orthogonalEdgeStyle;rounded=0;orthogonalLoop=1;jettySize=auto;html=1;startArrow=classic;startFill=1;endArrow=none;endFill=0;" edge="1" parent="1">
          <mxGeometry relative="1" as="geometry">
            <mxPoint x="610" y="430" as="targetPoint" />
            <mxPoint x="1110" y="680" as="sourcePoint" />
            <Array as="points">
              <mxPoint x="680" y="680" />
              <mxPoint x="620" y="680" />
            </Array>
          </mxGeometry>
        </mxCell>
        <mxCell id="MlDsWG4FhvYhMnGSrDSt-25" value="" style="rounded=0;whiteSpace=wrap;html=1;" vertex="1" parent="1">
          <mxGeometry x="969" y="665" width="30" height="30" as="geometry" />
        </mxCell>
        <mxCell id="MlDsWG4FhvYhMnGSrDSt-26" value="&lt;span style=&quot;font-size: 30px;&quot;&gt;tclk&lt;/span&gt;" style="text;html=1;align=center;verticalAlign=middle;resizable=0;points=[];autosize=1;strokeColor=none;fillColor=none;" vertex="1" parent="1">
          <mxGeometry x="362" y="827" width="70" height="50" as="geometry" />
        </mxCell>
        <mxCell id="MlDsWG4FhvYhMnGSrDSt-27" style="edgeStyle=orthogonalEdgeStyle;rounded=0;orthogonalLoop=1;jettySize=auto;html=1;exitX=1;exitY=0.5;exitDx=0;exitDy=0;" edge="1" parent="1">
          <mxGeometry relative="1" as="geometry">
            <mxPoint x="1110" y="148" as="targetPoint" />
            <mxPoint x="750" y="149" as="sourcePoint" />
          </mxGeometry>
        </mxCell>
        <mxCell id="MlDsWG4FhvYhMnGSrDSt-28" style="edgeStyle=orthogonalEdgeStyle;rounded=0;orthogonalLoop=1;jettySize=auto;html=1;exitX=0;exitY=0.5;exitDx=0;exitDy=0;startArrow=classic;startFill=1;endArrow=none;endFill=0;" edge="1" parent="1" source="MlDsWG4FhvYhMnGSrDSt-29">
          <mxGeometry relative="1" as="geometry">
            <mxPoint x="610" y="280" as="targetPoint" />
          </mxGeometry>
        </mxCell>
        <mxCell id="MlDsWG4FhvYhMnGSrDSt-29" value="&lt;font style=&quot;font-size: 30px;&quot;&gt;ICG&lt;/font&gt;" style="whiteSpace=wrap;html=1;aspect=fixed;" vertex="1" parent="1">
          <mxGeometry x="670" y="108" width="80" height="80" as="geometry" />
        </mxCell>
        <mxCell id="MlDsWG4FhvYhMnGSrDSt-30" value="&lt;span style=&quot;font-size: 30px;&quot;&gt;gen_bist_clk&lt;/span&gt;" style="text;html=1;align=center;verticalAlign=middle;resizable=0;points=[];autosize=1;strokeColor=none;fillColor=none;" vertex="1" parent="1">
          <mxGeometry x="883" y="88" width="190" height="50" as="geometry" />
        </mxCell>
        <mxCell id="MlDsWG4FhvYhMnGSrDSt-31" value="" style="rounded=0;whiteSpace=wrap;html=1;" vertex="1" parent="1">
          <mxGeometry x="973" y="134" width="30" height="30" as="geometry" />
        </mxCell>
        <mxCell id="MlDsWG4FhvYhMnGSrDSt-32" style="edgeStyle=orthogonalEdgeStyle;rounded=0;orthogonalLoop=1;jettySize=auto;html=1;exitX=1;exitY=0.5;exitDx=0;exitDy=0;entryX=0.75;entryY=1;entryDx=0;entryDy=0;" edge="1" parent="1" source="MlDsWG4FhvYhMnGSrDSt-33" target="MlDsWG4FhvYhMnGSrDSt-47">
          <mxGeometry relative="1" as="geometry">
            <mxPoint x="1110" y="827.6923076923076" as="targetPoint" />
          </mxGeometry>
        </mxCell>
        <mxCell id="MlDsWG4FhvYhMnGSrDSt-33" value="" style="rounded=0;whiteSpace=wrap;html=1;" vertex="1" parent="1">
          <mxGeometry x="306" y="800" width="50" height="56" as="geometry" />
        </mxCell>
        <mxCell id="MlDsWG4FhvYhMnGSrDSt-34" value="&lt;span style=&quot;font-size: 30px;&quot;&gt;PB[5]&lt;/span&gt;" style="text;html=1;align=center;verticalAlign=middle;resizable=0;points=[];autosize=1;strokeColor=none;fillColor=none;" vertex="1" parent="1">
          <mxGeometry x="279" y="751" width="100" height="50" as="geometry" />
        </mxCell>
        <mxCell id="MlDsWG4FhvYhMnGSrDSt-35" value="&lt;span style=&quot;font-size: 30px;&quot;&gt;gen_fclk&lt;/span&gt;" style="text;html=1;align=center;verticalAlign=middle;resizable=0;points=[];autosize=1;strokeColor=none;fillColor=none;" vertex="1" parent="1">
          <mxGeometry x="918" y="616" width="140" height="50" as="geometry" />
        </mxCell>
        <mxCell id="MlDsWG4FhvYhMnGSrDSt-36" value="" style="shape=flexArrow;endArrow=classic;html=1;rounded=0;fillColor=#60a917;strokeColor=#2D7600;" edge="1" parent="1">
          <mxGeometry width="50" height="50" relative="1" as="geometry">
            <mxPoint x="240" y="420" as="sourcePoint" />
            <mxPoint x="300" y="290" as="targetPoint" />
          </mxGeometry>
        </mxCell>
        <mxCell id="MlDsWG4FhvYhMnGSrDSt-37" value="" style="shape=flexArrow;endArrow=classic;html=1;rounded=0;fillColor=#60a917;strokeColor=#2D7600;" edge="1" parent="1">
          <mxGeometry width="50" height="50" relative="1" as="geometry">
            <mxPoint x="220" y="640" as="sourcePoint" />
            <mxPoint x="289" y="830" as="targetPoint" />
          </mxGeometry>
        </mxCell>
        <mxCell id="MlDsWG4FhvYhMnGSrDSt-38" value="" style="shape=flexArrow;endArrow=classic;html=1;rounded=0;fillColor=#60a917;strokeColor=#2D7600;" edge="1" parent="1">
          <mxGeometry width="50" height="50" relative="1" as="geometry">
            <mxPoint x="840" y="-70" as="sourcePoint" />
            <mxPoint x="780" y="149" as="targetPoint" />
          </mxGeometry>
        </mxCell>
        <mxCell id="MlDsWG4FhvYhMnGSrDSt-39" value="&lt;font style=&quot;font-size: 30px;&quot;&gt;OSC_CLK&lt;br&gt;&lt;/font&gt;" style="text;html=1;align=center;verticalAlign=middle;resizable=0;points=[];autosize=1;strokeColor=none;fillColor=none;" vertex="1" parent="1">
          <mxGeometry x="149" y="411" width="160" height="50" as="geometry" />
        </mxCell>
        <mxCell id="MlDsWG4FhvYhMnGSrDSt-40" value="&lt;font style=&quot;font-size: 30px;&quot;&gt;TCLK&lt;br&gt;&lt;/font&gt;" style="text;html=1;align=center;verticalAlign=middle;resizable=0;points=[];autosize=1;strokeColor=none;fillColor=none;" vertex="1" parent="1">
          <mxGeometry x="179" y="590" width="100" height="50" as="geometry" />
        </mxCell>
        <mxCell id="MlDsWG4FhvYhMnGSrDSt-41" value="&lt;font style=&quot;font-size: 30px;&quot;&gt;BIST_CLK&lt;br&gt;&lt;/font&gt;" style="text;html=1;align=center;verticalAlign=middle;resizable=0;points=[];autosize=1;strokeColor=none;fillColor=none;" vertex="1" parent="1">
          <mxGeometry x="748" y="-120" width="170" height="50" as="geometry" />
        </mxCell>
        <mxCell id="MlDsWG4FhvYhMnGSrDSt-42" value="" style="shape=flexArrow;endArrow=classic;html=1;rounded=0;fillColor=#60a917;strokeColor=#2D7600;" edge="1" parent="1">
          <mxGeometry width="50" height="50" relative="1" as="geometry">
            <mxPoint x="827" y="1015" as="sourcePoint" />
            <mxPoint x="837" y="575" as="targetPoint" />
          </mxGeometry>
        </mxCell>
        <mxCell id="MlDsWG4FhvYhMnGSrDSt-43" value="&lt;font style=&quot;font-size: 30px;&quot;&gt;PCLK&lt;br&gt;&lt;/font&gt;" style="text;html=1;align=center;verticalAlign=middle;resizable=0;points=[];autosize=1;strokeColor=none;fillColor=none;" vertex="1" parent="1">
          <mxGeometry x="778" y="1020" width="100" height="50" as="geometry" />
        </mxCell>
        <mxCell id="MlDsWG4FhvYhMnGSrDSt-44" value="" style="shape=flexArrow;endArrow=classic;html=1;rounded=0;fillColor=#60a917;strokeColor=#2D7600;" edge="1" parent="1">
          <mxGeometry width="50" height="50" relative="1" as="geometry">
            <mxPoint x="190" y="190" as="sourcePoint" />
            <mxPoint x="310" y="290" as="targetPoint" />
          </mxGeometry>
        </mxCell>
        <mxCell id="MlDsWG4FhvYhMnGSrDSt-45" value="&lt;font style=&quot;font-size: 30px;&quot;&gt;SCAN_CLK&lt;br&gt;&lt;/font&gt;" style="text;html=1;align=center;verticalAlign=middle;resizable=0;points=[];autosize=1;strokeColor=none;fillColor=none;" vertex="1" parent="1">
          <mxGeometry x="90" y="134" width="180" height="50" as="geometry" />
        </mxCell>
        <mxCell id="MlDsWG4FhvYhMnGSrDSt-46" style="edgeStyle=orthogonalEdgeStyle;rounded=0;orthogonalLoop=1;jettySize=auto;html=1;exitX=0.5;exitY=0;exitDx=0;exitDy=0;" edge="1" parent="1" source="MlDsWG4FhvYhMnGSrDSt-47">
          <mxGeometry relative="1" as="geometry">
            <mxPoint x="1150" y="805" as="targetPoint" />
          </mxGeometry>
        </mxCell>
        <mxCell id="MlDsWG4FhvYhMnGSrDSt-47" value="" style="shape=trapezoid;perimeter=trapezoidPerimeter;whiteSpace=wrap;html=1;fixedSize=1;rotation=90;fillColor=#a20025;fontColor=#ffffff;strokeColor=#6F0000;" vertex="1" parent="1">
          <mxGeometry x="860" y="785" width="94" height="40" as="geometry" />
        </mxCell>
        <mxCell id="MlDsWG4FhvYhMnGSrDSt-48" style="edgeStyle=orthogonalEdgeStyle;rounded=0;orthogonalLoop=1;jettySize=auto;html=1;exitX=0.5;exitY=0;exitDx=0;exitDy=0;entryX=0;entryY=0.5;entryDx=0;entryDy=0;endArrow=none;endFill=0;" edge="1" parent="1" source="MlDsWG4FhvYhMnGSrDSt-49" target="MlDsWG4FhvYhMnGSrDSt-23">
          <mxGeometry relative="1" as="geometry" />
        </mxCell>
        <mxCell id="MlDsWG4FhvYhMnGSrDSt-49" value="" style="shape=trapezoid;perimeter=trapezoidPerimeter;whiteSpace=wrap;html=1;fixedSize=1;rotation=90;fillColor=#a20025;fontColor=#ffffff;strokeColor=#6F0000;" vertex="1" parent="1">
          <mxGeometry x="840" y="571" width="94" height="40" as="geometry" />
        </mxCell>
        <mxCell id="MlDsWG4FhvYhMnGSrDSt-50" value="" style="edgeStyle=segmentEdgeStyle;endArrow=classic;html=1;curved=0;rounded=0;endSize=8;startSize=8;sourcePerimeterSpacing=0;targetPerimeterSpacing=0;entryX=0.75;entryY=1;entryDx=0;entryDy=0;endFill=1;jumpStyle=arc;jumpSize=14;" edge="1" parent="1">
          <mxGeometry width="100" relative="1" as="geometry">
            <mxPoint x="560" y="280" as="sourcePoint" />
            <mxPoint x="867" y="621.5" as="targetPoint" />
            <Array as="points">
              <mxPoint x="560" y="621" />
            </Array>
          </mxGeometry>
        </mxCell>
        <mxCell id="MlDsWG4FhvYhMnGSrDSt-51" value="" style="edgeStyle=segmentEdgeStyle;endArrow=classic;html=1;curved=0;rounded=0;endSize=8;startSize=8;sourcePerimeterSpacing=0;targetPerimeterSpacing=0;entryX=0.75;entryY=1;entryDx=0;entryDy=0;endFill=1;" edge="1" parent="1">
          <mxGeometry width="100" relative="1" as="geometry">
            <mxPoint x="400" y="280" as="sourcePoint" />
            <mxPoint x="885" y="785.75" as="targetPoint" />
            <Array as="points">
              <mxPoint x="400" y="444" />
              <mxPoint x="400" y="786" />
            </Array>
          </mxGeometry>
        </mxCell>
        <mxCell id="MlDsWG4FhvYhMnGSrDSt-52" value="&lt;font style=&quot;font-size: 30px;&quot;&gt;mppt_top&lt;br&gt;&lt;/font&gt;" style="text;html=1;align=center;verticalAlign=middle;resizable=0;points=[];autosize=1;strokeColor=none;fillColor=none;" vertex="1" parent="1">
          <mxGeometry x="339" y="-80" width="150" height="50" as="geometry" />
        </mxCell>
      </root>
    </mxGraphModel>
  </diagram>
</mxfile>
